<svg width="64" height="64" viewBox="0 0 64 64" xmlns="http://www.w3.org/2000/svg">
  <style>
    .bg { fill: oklch(0.52 0.19 262); }
    .fg { fill: none; stroke: oklch(0.985 0 0); stroke-width: 2; stroke-linecap: round; stroke-linejoin: round; }
    @media (prefers-color-scheme: dark) {
      .bg { fill: oklch(0.65 0.17 262); }
      .fg { stroke: oklch(0.16 0.02 265); }
    }
  </style>
  <rect class="bg" width="64" height="64" rx="16" />
  <g transform="translate(14, 14) scale(1.5)">
    <path class="fg" d="M2 9a3 3 0 0 1 0 6v2a2 2 0 0 0 2 2h16a2 2 0 0 0 2-2v-2a3 3 0 0 1 0-6V7a2 2 0 0 0-2-2H4a2 2 0 0 0-2 2Z" />
    <path class="fg" d="M13 5v2" />
    <path class="fg" d="M13 17v2" />
    <path class="fg" d="M13 11v2" />
  </g>
</svg>
